<svg width="16" height="17" fill="none" xmlns="http://www.w3.org/2000/svg"><path d="M7.383 2.255c.213-.562 1.02-.562 1.234 0l1.38 3.823a.66.66 0 0 0 .618.422h3.391c.627 0 .9.78.407 1.162L12 9.833a.646.646 0 0 0-.215.728l.882 3.736c.214.6-.48 1.115-1.006.746l-3.278-2.08a.667.667 0 0 0-.766 0l-3.278 2.08c-.525.369-1.22-.147-1.006-.746l.882-3.736A.645.645 0 0 0 4 9.833L1.587 7.662C1.093 7.28 1.368 6.5 1.993 6.5h3.392a.66.66 0 0 0 .617-.422l1.38-3.823h0Z" fill="#F7AB3A" stroke="#F7AB3A" stroke-width=".5" stroke-linecap="round" stroke-linejoin="round"/></svg>